<svg width="16" height="17" viewBox="0 0 16 17" fill="none" xmlns="http://www.w3.org/2000/svg">
<path d="M8.00065 14.4579C10.8541 14.4579 13.1673 11.9579 13.1673 8.95784C13.1673 5.51317 10.0918 3.07194 8.85307 2.22837C8.56929 2.03512 8.19435 2.11874 7.99678 2.39952L6.38863 4.68503C6.15096 5.0228 5.66501 5.06393 5.37203 4.77284C5.11194 4.51442 4.68797 4.51163 4.45454 4.79437C3.37417 6.10288 2.83398 7.7321 2.83398 8.95784C2.83398 11.9579 5.14718 14.4579 8.00065 14.4579ZM8.00065 14.4579C9.10522 14.4579 10.0007 13.4358 10.0007 12.175C10.0007 10.7862 8.89191 9.77436 8.32548 9.34808C8.13084 9.20161 7.87046 9.20161 7.67583 9.34808C7.1094 9.77436 6.00065 10.7862 6.00065 12.175C6.00065 13.4358 6.89608 14.4579 8.00065 14.4579Z" stroke="#FCFBFA" stroke-width="1.5" stroke-linejoin="round"/>
</svg>
